Coordinates
version=1
nRows=15
nColumns=46
inDegrees=yes

Units are S.I. units (second, meters, Newtons, ...)
Angles are in degrees.

endheader
time	pelvis_tilt	pelvis_list	pelvis_rotation	pelvis_tx	pelvis_ty	pelvis_tz	bb_angle	bb_tx	bb_ty	bb_tz	hip_flexion_r	hip_adduction_r	hip_rotation_r	knee_angle_r	knee_angle_r_beta	ankle_angle_r	subtalar_angle_r	mtp_angle_r	crank_angle_r	hip_flexion_l	hip_adduction_l	hip_rotation_l	knee_angle_l	knee_angle_l_beta	ankle_angle_l	subtalar_angle_l	mtp_angle_l	crank_angle_l	lumbar_extension	lumbar_bending	lumbar_rotation	arm_flex_r	arm_add_r	arm_rot_r	elbow_flex_r	pro_sup_r	wrist_flex_r	wrist_dev_r	arm_flex_l	arm_add_l	arm_rot_l	elbow_flex_l	pro_sup_l	wrist_flex_l	wrist_dev_l
      2.50500000	     -8.96995486	     -5.78934316	     -7.33190344	      0.12543759	      1.16302954	     -0.26878548	      0.00000000	      0.50000000	      0.00000000	      0.25000000	     81.23041264	      3.81433887	     -0.42389577	    108.28166784	      1.88987162	     10.66085503	     -7.23847148	      0.00000000	      0.00000000	     33.76135433	    -18.72958918	    -15.85536709	     36.11188793	      0.63027134	    -16.51774217	     10.53558444	      0.00000000	      0.00000000	    -61.31077013	     -1.11277157	      2.94323519	     87.95849668	     -6.24530436	     47.58589171	     32.75083818	     38.87926855	      0.00000000	      0.00000000	     88.84330560	    -23.91579228	     58.18298931	     38.05873944	     44.65442302	      0.00000000	      0.00000000
      2.51000000	     -8.81455009	     -5.51273552	     -7.53115565	      0.12413198	      1.16299638	     -0.26826422	      0.00000000	      0.50000000	      0.00000000	      0.25000000	     81.23598251	      4.15276850	     -0.08494977	    107.57430506	      1.87752581	     11.32901978	     -7.47023788	      0.00000000	      0.00000000	     33.77960971	    -18.62753321	    -15.41725210	     37.19923524	      0.64924913	    -16.48265723	     10.23412104	      0.00000000	      0.00000000	    -61.51068770	     -1.47856933	      2.77059692	     88.03917259	     -6.27162481	     47.48397652	     32.83147341	     38.87880284	      0.00000000	      0.00000000	     88.90540366	    -23.89588046	     58.11930902	     38.09242401	     44.64367983	      0.00000000	      0.00000000
      2.51500000	     -8.83530439	     -5.43763183	     -7.81775863	      0.12280210	      1.16225025	     -0.26770582	      0.00000000	      0.50000000	      0.00000000	      0.25000000	     81.30056314	      4.59616439	      0.04707919	    106.79500130	      1.86392440	     12.42755656	     -7.44945897	      0.00000000	      0.00000000	     34.25240473	    -18.85388735	    -14.96383304	     38.81455965	      0.67744186	    -16.12473659	      9.47905888	      0.00000000	      0.00000000	    -61.53388056	     -1.69947268	      2.80312037	     88.04574553	     -6.17683135	     47.18636188	     33.17492751	     38.89652686	      0.00000000	      0.00000000	     88.94086318	    -24.05633851	     57.77808875	     38.18276907	     44.58872221	      0.00000000	      0.00000000
      2.52000000	     -9.16637667	     -5.61409254	     -7.83261378	      0.12114904	      1.16087455	     -0.26760644	      0.00000000	      0.50000000	      0.00000000	      0.25000000	     81.51026417	      4.91863431	     -0.04882880	    105.81477825	      1.84681628	     13.67936940	     -7.49290710	      0.00000000	      0.00000000	     35.37049827	    -19.10312926	    -13.74634996	     40.57876804	      0.70823311	    -15.93132463	      8.99127019	      0.00000000	      0.00000000	    -61.31423652	     -1.51300652	      2.95479216	     87.75885483	     -6.16763599	     45.43390211	     34.34144125	     38.88254739	      0.00000000	      0.00000000	     88.78944504	    -24.17682206	     56.58531617	     38.90816958	     44.41148600	      0.00000000	      0.00000000
      2.52500000	     -8.95811890	     -5.21796497	     -8.06770757	      0.11981422	      1.16046357	     -0.26713355	      0.00000000	      0.50000000	      0.00000000	      0.25000000	     81.10024027	      5.31737134	      0.50450037	    104.79309490	      1.82898454	     14.83293005	     -7.83751610	      0.00000000	      0.00000000	     35.59715013	    -18.85372292	    -13.22448010	     42.05142571	      0.73393583	    -15.87161723	      8.53459407	      0.00000000	      0.00000000	    -61.49946377	     -1.99730396	      2.67766895	     87.79684568	     -6.17059555	     45.34587867	     34.42260016	     38.88675205	      0.00000000	      0.00000000	     88.85787734	    -24.18720291	     56.50725044	     38.90318774	     44.39287816	      0.00000000	      0.00000000
      2.53000000	     -8.88791543	     -5.09653455	     -8.22064364	      0.11857190	      1.15949732	     -0.26684795	      0.00000000	      0.50000000	      0.00000000	      0.25000000	     80.63752129	      5.70765490	      0.84302228	    103.59763870	      1.80811989	     16.43899912	     -7.57184329	      0.00000000	      0.00000000	     36.23313880	    -18.83167622	    -12.47609812	     43.91468497	      0.76645584	    -15.68886305	      7.43472652	      0.00000000	      0.00000000	    -61.55436732	     -2.09710065	      2.48230009	     87.71811793	     -5.96389754	     44.99173879	     34.85790822	     38.92350428	      0.00000000	      0.00000000	     88.83879081	    -24.44978893	     56.06017238	     38.97970757	     44.32123238	      0.00000000	      0.00000000
      2.53500000	     -8.80380807	     -4.82368362	     -8.31202001	      0.11734553	      1.15841190	     -0.26689454	      0.00000000	      0.50000000	      0.00000000	      0.25000000	     80.08911830	      5.87376517	      1.21702334	    102.32432144	      1.78589631	     18.06281070	     -7.48050462	      0.00000000	      0.00000000	     36.90422992	    -18.54431791	    -11.66042063	     45.79096110	      0.79920304	    -15.64277292	      6.33921623	      0.00000000	      0.00000000	    -61.60499272	     -2.28365520	      2.16016971	     87.60100082	     -5.84500856	     44.50988427	     35.32091503	     38.95420521	      0.00000000	      0.00000000	     88.76045451	    -24.64625918	     55.66591352	     39.15852100	     44.27775636	      0.00000000	      0.00000000
      2.54000000	     -8.74610057	     -4.56072425	     -8.20223472	      0.11616190	      1.15714670	     -0.26726673	      0.00000000	      0.50000000	      0.00000000	      0.25000000	     79.45101018	      5.86513675	      1.55523429	    100.92146337	      1.76141182	     19.60410352	     -7.64342241	      0.00000000	      0.00000000	     37.74489217	    -18.11548292	    -10.66484795	     47.74568820	      0.83331946	    -15.62952020	      5.31646751	      0.00000000	      0.00000000	    -61.64794476	     -2.26881073	      1.73539023	     87.24941490	     -5.64059810	     43.02820035	     36.21835738	     38.97620317	      0.00000000	      0.00000000	     88.59402809	    -24.95560884	     54.55227843	     39.76086760	     44.18352179	      0.00000000	      0.00000000
      2.54500000	     -8.45730380	     -4.20589571	     -8.42618511	      0.11529283	      1.15629354	     -0.26696236	      0.00000000	      0.50000000	      0.00000000	      0.25000000	     78.48068125	      6.19943162	      2.08292057	     99.38998416	      1.73468247	     21.02483428	     -7.95903805	      0.00000000	      0.00000000	     38.14089539	    -17.86564412	    -10.35002846	     49.66009047	      0.86673209	    -15.64454919	      4.14246881	      0.00000000	      0.00000000	    -61.84276996	     -2.64778485	      1.44563392	     87.09884921	     -5.53563867	     42.74735900	     36.46038399	     38.99932387	      0.00000000	      0.00000000	     88.56113142	    -25.08976955	     54.34628428	     39.74550564	     44.14921002	      0.00000000	      0.00000000
      2.55000000	     -8.22046185	     -3.88826872	     -8.51343245	      0.11439089	      1.15509176	     -0.26682818	      0.00000000	      0.50000000	      0.00000000	      0.25000000	     77.52709580	      6.41683588	      2.54980626	     97.79431151	      1.70683273	     22.35676921	     -8.22577657	      0.00000000	      0.00000000	     38.71905188	    -17.55592523	     -9.90302692	     51.68033380	      0.90199198	    -15.65444812	      2.74647971	      0.00000000	      0.00000000	    -61.97645880	     -2.84609150	      1.13970627	     86.87690037	     -5.43441341	     42.33128532	     36.83359717	     39.03413908	      0.00000000	      0.00000000	     88.49734700	    -25.23413388	     54.06597680	     39.78636413	     44.11748125	      0.00000000	      0.00000000
      2.55500000	     -8.08224121	     -3.65322081	     -8.37381901	      0.11349784	      1.15358033	     -0.26710736	      0.00000000	      0.50000000	      0.00000000	      0.25000000	     76.67804383	      6.36396110	      2.86834715	     96.18708957	      1.67878141	     23.44595743	     -8.38305751	      0.00000000	      0.00000000	     39.56736993	    -17.13664055	     -9.14148236	     53.77906340	      0.93862172	    -15.78817422	      1.35877541	      0.00000000	      0.00000000	    -62.00380308	     -2.80707523	      0.82255379	     86.47458564	     -5.34424477	     41.16094061	     37.65734510	     39.09436385	      0.00000000	      0.00000000	     88.30661637	    -25.33795942	     53.44122723	     40.04437479	     44.08550918	      0.00000000	      0.00000000
      2.56000000	     -7.73270684	     -3.19888184	     -8.39411706	      0.11286412	      1.15231757	     -0.26687313	      0.00000000	      0.50000000	      0.00000000	      0.25000000	     75.69963842	      6.44302530	      3.48901657	     94.67904564	      1.65246108	     24.19131095	     -8.75290619	      0.00000000	      0.00000000	     40.03915542	    -16.74921370	     -9.00018808	     55.82279558	      0.97429158	    -15.69794363	      0.52753487	      0.00000000	      0.00000000	    -62.17974066	     -3.10266484	      0.44382636	     86.28790562	     -5.38435809	     40.95902827	     37.78846090	     39.10545520	      0.00000000	      0.00000000	     88.25011310	    -25.29499818	     53.35442239	     40.05179760	     44.07796805	      0.00000000	      0.00000000
      2.56500000	     -7.41063800	     -2.83524960	     -8.38690908	      0.11227620	      1.15102237	     -0.26665142	      0.00000000	      0.50000000	      0.00000000	      0.25000000	     74.77797221	      6.47494813	      4.00898311	     93.20384731	      1.62671401	     24.72004666	     -8.99187104	      0.00000000	      0.00000000	     40.57533120	    -16.41187694	     -8.75356707	     57.89487745	      1.01045623	    -15.65003847	     -0.50766259	      0.00000000	      0.00000000	    -62.36455818	     -3.31628698	      0.11512836	     86.10649360	     -5.40868812	     40.70294909	     37.98923720	     39.12233084	      0.00000000	      0.00000000	     88.18602928	    -25.27858545	     53.24039770	     40.03828998	     44.06413527	      0.00000000	      0.00000000
      2.57000000	     -7.39388357	     -2.87218091	     -8.00790375	      0.11150845	      1.14934538	     -0.26723822	      0.00000000	      0.50000000	      0.00000000	      0.25000000	     74.09781780	      6.26179193	      4.03412952	     91.58423127	      1.59844638	     24.97982189	     -9.17179918	      0.00000000	      0.00000000	     41.69511672	    -16.15383931	     -7.92456522	     60.02643026	      1.04765885	    -16.07092391	     -2.32126674	      0.00000000	      0.00000000	    -62.33665305	     -2.78356242	      0.02910695	     85.75426397	     -5.29786472	     39.57449026	     38.99234791	     39.20897993	      0.00000000	      0.00000000	     88.04050470	    -25.31364178	     52.69586319	     40.00308821	     44.00371070	      0.00000000	      0.00000000
      2.57500000	     -7.15660779	     -2.45959290	     -7.93746640	      0.11106894	      1.14800102	     -0.26695122	      0.00000000	      0.50000000	      0.00000000	      0.25000000	     73.30665043	      6.17203442	      4.58207129	     90.12066566	      1.57290234	     25.12976430	     -9.25432000	      0.00000000	      0.00000000	     42.29372728	    -15.80320939	     -7.76031534	     62.04818593	      1.08294514	    -15.80263290	     -2.99489244	      0.00000000	      0.00000000	    -62.42002359	     -3.00970172	     -0.26087444	     85.53153299	     -5.34554618	     39.25599279	     39.18756214	     39.22090435	      0.00000000	      0.00000000	     87.99236869	    -25.16053439	     52.56906529	     40.04580177	     43.99867638	      0.00000000	      0.00000000
